<?xml version="1.0" encoding="UTF-8"?>
<svg version="1.1" xmlns="http://www.w3.org/2000/svg" width="998" height="345">
<path d="M0 0 C329.34 0 658.68 0 998 0 C998 113.85 998 227.7 998 345 C668.66 345 339.32 345 0 345 C0 231.15 0 117.3 0 0 Z " fill="#01FBF9" transform="translate(0,0)"/>
<path d="M0 0 C0 4.62 0 9.24 0 14 C-1.26714844 13.97679687 -2.53429687 13.95359375 -3.83984375 13.9296875 C-5.53905655 13.91091167 -7.2382758 13.89271343 -8.9375 13.875 C-9.76830078 13.85824219 -10.59910156 13.84148437 -11.45507812 13.82421875 C-18.44567827 13.76981719 -26.53746105 13.74990041 -31.875 18.875 C-32.43316406 19.40867188 -32.99132812 19.94234375 -33.56640625 20.4921875 C-40.62380245 27.91495298 -41.19142586 37.04004733 -41.125 46.9375 C-41.12306641 47.63681641 -41.12113281 48.33613281 -41.11914062 49.05664062 C-41.07944138 53.78967337 -40.77739563 58.33562624 -40 63 C-39.01 63.33 -38.02 63.66 -37 64 C-36.401875 64.9075 -35.80375 65.815 -35.1875 66.75 C-31.82685727 71.74295491 -27.87743875 75.27408545 -22 77 C-18.55815051 77.23632482 -15.13529429 77.1883517 -11.6875 77.125 C-10.75615234 77.11597656 -9.82480469 77.10695313 -8.86523438 77.09765625 C-6.5765564 77.07418263 -4.28841328 77.04134729 -2 77 C-1.63648438 75.8140625 -1.27296875 74.628125 -0.8984375 73.40625 C2.77017785 61.54858499 6.91441422 49.96893583 11.39453125 38.3984375 C16.35709415 25.41101394 20.65624854 12.20500444 25 -1 C31.27 -1 37.54 -1 44 -1 C46.75 7.8125 46.75 7.8125 47.58886719 10.51489258 C48.91083783 14.72468531 50.30475367 18.89130588 51.83203125 23.03125 C54.42576966 30.07999153 56.78493665 37.20518376 59.15405273 44.33178711 C59.93055017 46.66660285 60.71022264 49.00034068 61.49023438 51.33398438 C64.0066942 58.87878719 66.48472239 66.43495568 68.87890625 74.01953125 C69.20156715 75.03305916 69.20156715 75.03305916 69.53074646 76.06706238 C71 80.76313596 71 80.76313596 71 83 C71.66 82.67 72.32 82.34 73 82 C74.10775415 65.35650366 74.30788645 48.70041787 74.53222656 32.02740479 C74.58327791 28.29231974 74.63851847 24.55729661 74.69335938 20.82226562 C74.79956913 13.54822898 74.90090425 6.27413768 75 -1 C82.92 -1 90.84 -1 99 -1 C100.3921875 3.9809375 100.3921875 3.9809375 101.8125 9.0625 C105.15325874 20.74523256 109.12586052 32.15981228 113.2668457 43.57641602 C113.49879639 44.21728149 113.73074707 44.85814697 113.96972656 45.51843262 C114.60148902 47.26023646 115.23771599 49.00041918 115.87426758 50.74047852 C117.55245241 55.59960791 119 59.83072203 119 65 C119.99 65 120.98 65 122 65 C122.09667969 63.75089844 122.19335938 62.50179687 122.29296875 61.21484375 C122.93773452 55.4413107 124.57265291 50.08842943 126.3125 44.5625 C126.75625977 43.10360352 126.75625977 43.10360352 127.20898438 41.61523438 C128.94372595 36.0063615 130.89493175 30.5567504 133.16308594 25.14111328 C134.14813781 22.62101267 134.76817485 20.05753066 135.3671875 17.421875 C136.28215119 13.92016211 137.42213161 10.49568961 138.5625 7.0625 C138.78478271 6.38678955 139.00706543 5.7110791 139.23608398 5.01489258 C140.87589649 0.12410351 140.87589649 0.12410351 142 -1 C143.70772358 -1.08713831 145.41898649 -1.10700007 147.12890625 -1.09765625 C148.68061523 -1.09282227 148.68061523 -1.09282227 150.26367188 -1.08789062 C151.35228516 -1.07951172 152.44089844 -1.07113281 153.5625 -1.0625 C155.2012207 -1.05573242 155.2012207 -1.05573242 156.87304688 -1.04882812 C159.58208495 -1.03699826 162.29101599 -1.02051543 165 -1 C165.77090503 30.00637426 166.13368869 60.98422292 166 92 C160.39 92 154.78 92 149 92 C148.67 70.22 148.34 48.44 148 26 C146.02507431 31.92477706 144.09038817 37.84460153 142.2578125 43.8125 C142.00756317 44.62509277 141.75731384 45.43768555 141.4994812 46.27490234 C140.97293194 47.98568057 140.44690716 49.6966203 139.92138672 51.40771484 C139.13535183 53.96630418 138.34709755 56.52420186 137.55859375 59.08203125 C134.49626084 69.02730518 134.49626084 69.02730518 131.53808594 79.00390625 C131.30862274 79.7932959 131.07915955 80.58268555 130.84274292 81.39599609 C130.41001068 82.89150851 129.98028461 84.38789499 129.5539856 85.88525391 C128.10844523 90.89155477 128.10844523 90.89155477 127 92 C124.46950598 92.07313567 121.96695163 92.09247527 119.4375 92.0625 C118.37112305 92.05573242 118.37112305 92.05573242 117.28320312 92.04882812 C115.52209987 92.03700864 113.76103964 92.01907263 112 92 C111.59273682 90.64189209 111.59273682 90.64189209 111.17724609 89.25634766 C104.48571622 66.89300413 104.48571622 66.89300413 97.24609375 44.703125 C95.65190879 39.96554713 94.19476415 35.19516122 92.76171875 30.40625 C92.07564966 28.02094548 92.07564966 28.02094548 91 26 C90.67 47.78 90.34 69.56 90 92 C78.45 92 66.9 92 55 92 C54.01 88.04 53.02 84.08 52 80 C51.01 76.535 51.01 76.535 50 73 C39.11 72.67 28.22 72.34 17 72 C16.34 75.96 15.68 79.92 15 84 C14.07813709 86.69467621 13.10969518 89.37708412 12 92 C6.59231529 92.07455448 1.18493452 92.12879227 -4.22314453 92.16479492 C-6.06011166 92.17981496 -7.89704334 92.20023709 -9.73388672 92.22631836 C-12.38518054 92.26300202 -15.03599732 92.27979438 -17.6875 92.29296875 C-18.49928711 92.30845261 -19.31107422 92.32393646 -20.14746094 92.33988953 C-29.34124871 92.34255966 -36.95578669 88.84965266 -44 83 C-52.42378208 74.22775212 -59 63.34195704 -59 51 C-67.91 51 -76.82 51 -86 51 C-86 59.91 -86 68.82 -86 78 C-75.11 78 -64.22 78 -53 78 C-53 82.62 -53 87.24 -53 92 C-69.17 92 -85.34 92 -102 92 C-102 61.64 -102 31.28 -102 0 C-86.16 0 -70.32 0 -54 0 C-54 4.29 -54 8.58 -54 13 C-64.56 13 -75.12 13 -86 13 C-86 21.25 -86 29.5 -86 38 C-81.68724111 37.8599173 -77.37488864 37.7132199 -73.0625 37.5625 C-71.83080078 37.52318359 -70.59910156 37.48386719 -69.33007812 37.44335938 C-68.16025391 37.40146484 -66.99042969 37.35957031 -65.78515625 37.31640625 C-64.70113525 37.27974854 -63.61711426 37.24309082 -62.50024414 37.20532227 C-60.060737 37.27635735 -60.060737 37.27635735 -59 36 C-58.50358043 33.22907624 -58.09958007 30.4498336 -57.6953125 27.6640625 C-56.94019731 24.77086834 -56.16874912 23.94224791 -54 22 C-53.4740625 20.4840625 -53.4740625 20.4840625 -52.9375 18.9375 C-49.91274449 11.43929029 -42.04961265 4.82270576 -35.109375 0.89453125 C-24.25771066 -3.70737826 -11.14539355 -3.02247961 0 0 Z " fill="#010908" transform="translate(574,132)"/>
<path d="M0 0 C1.39966029 1.1829869 2.79587632 2.37006951 4.1875 3.5625 C5.239375 4.305 6.29125 5.0475 7.375 5.8125 C15.56083081 13.81642346 18.40497408 24.26587322 18.61914062 35.40771484 C18.64795929 51.53896138 16.46746261 63.20340739 5.1875 75.5625 C2.36356979 77.96335042 -0.55684297 79.80283083 -3.8125 81.5625 C-5.09060547 82.27212891 -5.09060547 82.27212891 -6.39453125 82.99609375 C-16.92433124 88.56883647 -30.33696627 89.47599473 -41.99609375 86.84375 C-44.41072081 85.90954172 -46.57565254 84.86240381 -48.8125 83.5625 C-49.53695313 83.16546875 -50.26140625 82.7684375 -51.0078125 82.359375 C-56.43357983 79.1960125 -61.37318629 75.54990639 -63.8125 69.5625 C-64.4725 69.5625 -65.1325 69.5625 -65.8125 69.5625 C-67.25 67.65625 -67.25 67.65625 -68.8125 65.0625 C-69.328125 64.2271875 -69.84375 63.391875 -70.375 62.53125 C-73.77914434 55.50095191 -74.12920887 48.85901964 -74.0625 41.1875 C-74.07023437 40.30578125 -74.07796875 39.4240625 -74.0859375 38.515625 C-74.04474276 24.46821831 -70.31530202 13.87941864 -60.77734375 3.47265625 C-56.03028255 -1.14227999 -56.03028255 -1.14227999 -52.75 -1.9375 C-50.71865559 -2.27532891 -50.71865559 -2.27532891 -49.46484375 -3.89453125 C-38.63293235 -14.0094367 -10.27538545 -7.75309149 0 0 Z " fill="#010909" transform="translate(373.8125,138.4375)"/>
<path d="M0 0 C34 0 34 0 50 4 C50.495 5.485 50.495 5.485 51 7 C51.70125 7.226875 52.4025 7.45375 53.125 7.6875 C57.43844817 9.65668286 60.41398268 13.05017528 63 17 C63 18.32 63 19.64 63 21 C63.66 21 64.32 21 65 21 C65.65907418 22.1802026 66.3014948 23.36970734 66.9375 24.5625 C67.47697266 25.55443359 67.47697266 25.55443359 68.02734375 26.56640625 C73.44923048 40.13201041 70.49945614 58.60015983 66 72 C65.37173516 73.35185262 64.72340033 74.69657598 64 76 C63.34 76 62.68 76 62 76 C61.835 76.680625 61.67 77.36125 61.5 78.0625 C56.90874546 87.05370681 47.90782799 89.88869477 39 94 C26.13 94 13.26 94 0 94 C0 62.98 0 31.96 0 0 Z " fill="#000606" transform="translate(397,131)"/>
<path d="M0 0 C0.66 0 1.32 0 2 0 C0.58546596 3.02723952 -1.0932602 5.61701573 -3.0625 8.3125 C-6.20297846 12.74222751 -9.07916136 17.28636864 -11.875 21.9375 C-12.26824463 22.58823486 -12.66148926 23.23896973 -13.06665039 23.90942383 C-14.66046347 26.58419107 -16.01214505 29.03643516 -17 32 C-17.66 32 -18.32 32 -19 32 C-20.86699545 38.32704015 -21.31631145 44.04530322 -21.25 50.625 C-21.24323242 51.5948584 -21.23646484 52.5647168 -21.22949219 53.56396484 C-20.97278384 71.51265398 -18.27295458 86.6772752 -5.23046875 99.77734375 C0.05083734 104.29924635 6.36163068 106.04524345 12.90234375 108.01953125 C16 109 16 109 17 110 C17.25 112.9375 17.25 112.9375 17 116 C14 118 14 118 10.875 118.5 C9.92625 118.665 8.9775 118.83 8 119 C7.67 119.66 7.34 120.32 7 121 C8.3921875 121.4021875 8.3921875 121.4021875 9.8125 121.8125 C14.23127916 123.45871184 14.23127916 123.45871184 16 126 C16.26153069 128.58774771 16.34958438 130.92899653 16.29296875 133.51171875 C16.28872391 134.23994339 16.28447906 134.96816803 16.28010559 135.71846008 C16.26332733 138.04185127 16.22567855 140.3643715 16.1875 142.6875 C16.17245197 144.26365934 16.15876377 145.83983229 16.14648438 147.41601562 C16.11342685 151.27767877 16.06165194 155.13869178 16 159 C11.63624417 158.13734251 9.0152132 155.75016744 5.75 152.875 C5.16718262 152.37145996 4.58436523 151.86791992 3.98388672 151.34912109 C2.31663219 149.90608196 0.65726641 148.4544875 -1 147 C-1.69351563 146.39671875 -2.38703125 145.7934375 -3.1015625 145.171875 C-4.31496112 144.11349206 -5.52578162 143.05214811 -6.734375 141.98828125 C-9.85387774 139.25064868 -12.98906737 136.5312836 -16.125 133.8125 C-17.09409302 132.97187012 -17.09409302 132.97187012 -18.08276367 132.11425781 C-21.26504841 129.35703792 -24.45374349 126.60804512 -27.66015625 123.87890625 C-34.34020635 118.19223358 -40.89538887 112.40583306 -47.3359375 106.44921875 C-49.53090777 104.43126221 -51.7466621 102.45196555 -54 100.5 C-54.6084375 99.93925781 -55.216875 99.37851563 -55.84375 98.80078125 C-58.07714119 96.84998272 -58.07714119 96.84998272 -61.15625 95.04296875 C-65.94866612 91.82639951 -69.31376157 88.87911284 -70.69433594 83.08691406 C-71.13626898 79.64024458 -71.31525716 76.28649822 -71.375 72.8125 C-71.41302734 71.68352295 -71.45105469 70.5545459 -71.49023438 69.39135742 C-71.35720025 64.59540629 -71.13955068 61.29849604 -67.90307617 57.6105957 C-65.3537468 55.56896666 -62.74045963 53.77398602 -60 52 C-58.83721732 51.06522888 -57.68954502 50.11095507 -56.56640625 49.12890625 C-51.52458181 44.82139174 -46.46759309 40.54713042 -41.3125 36.375 C-37.83918224 33.55230372 -34.48341921 30.65252188 -31.1875 27.625 C-27.26529976 24.04575844 -23.19517164 20.7473298 -19 17.5 C-8.51643868 9.7029523 -8.51643868 9.7029523 0 0 Z " fill="#708EF8" transform="translate(99,101)"/>
<path d="M0 0 C3.81562395 1.29823475 6.07090879 2.74966858 8.8125 5.6875 C11.31582218 8.2881736 13.81801467 10.78025493 16.5625 13.125 C20.64936059 16.63727227 24.57145141 20.31317128 28.5 24 C34.24038861 29.39190958 34.24038861 29.39190958 40.125 34.625 C40.70507812 35.15609375 41.28515625 35.6871875 41.8828125 36.234375 C43.66938802 37.72428668 45.42483894 38.93809184 47.3671875 40.203125 C52.23923303 43.63363632 56.09969434 46.89337288 57.80615234 52.78173828 C59.12977279 60.69476798 59.75644288 70.02702497 55.74609375 77.26220703 C52.670506 81.14700473 48.93126951 83.99448947 44.84228516 86.74902344 C42.20879398 88.53725678 39.81035776 90.57830109 37.375 92.625 C36.49972656 93.32625 35.62445313 94.0275 34.72265625 94.75 C30.59798454 98.15862397 26.70053228 101.80112421 22.77734375 105.4375 C19.89306447 108.09866345 16.95662867 110.68699008 13.9921875 113.2578125 C11.63979365 115.31500399 9.31965034 117.40596915 7 119.5 C3.38323655 122.76390848 -0.26389608 125.98790949 -3.9375 129.1875 C-6.30964429 131.27211164 -8.65556065 133.38428644 -11 135.5 C-12.25296875 136.62728516 -12.25296875 136.62728516 -13.53125 137.77734375 C-15.1385348 139.2244087 -16.74286268 140.67476693 -18.34375 142.12890625 C-19.41109375 143.08603516 -19.41109375 143.08603516 -20.5 144.0625 C-21.44359375 144.91521484 -21.44359375 144.91521484 -22.40625 145.78515625 C-24 147 -24 147 -26 147 C-26 147.66 -26 148.32 -26 149 C-26.99 149 -27.98 149 -29 149 C-29 136.13 -29 123.26 -29 110 C-24.21987877 108.08795151 -19.50870186 106.72184684 -14.546875 105.390625 C-5.85392325 101.98237519 0.28226088 96.11095249 6.5 89.3125 C7.21414062 88.55388672 7.92828125 87.79527344 8.6640625 87.01367188 C12.56930311 82.96700414 12.56930311 82.96700414 15 78 C10.19510619 78.92553282 5.41592537 79.85926472 0.6875 81.125 C-2.40812012 81.85955393 -4.85142195 82.19678613 -8 82 C-8.56112842 78.46489097 -8.83848004 76.41085398 -8 73 C-5.08908509 69.47533797 -1.60593356 66.78803993 2 64 C8.90068629 58.51270729 14.11060133 52.87139513 16 44 C17.54780766 28.11105249 17.54780766 28.11105249 11.71875 13.90234375 C11.1515625 13.27457031 10.584375 12.64679688 10 12 C9.4740625 11.34128906 8.948125 10.68257812 8.40625 10.00390625 C6.27767226 7.39205448 4.0074939 5.0074939 1.625 2.625 C1.08875 2.08875 0.5525 1.5525 0 1 C0 0.67 0 0.34 0 0 Z " fill="#9E85EF" transform="translate(169,112)"/>
<path d="M0 0 C2.64590014 -0.02684679 5.29153096 -0.04676357 7.9375 -0.0625 C8.69224609 -0.07087891 9.44699219 -0.07925781 10.22460938 -0.08789062 C12.14994313 -0.09652441 14.07535581 -0.05224333 16 0 C17.76574726 1.76574726 17.14329137 4.29997521 17.15771484 6.69384766 C17.16797699 7.9124649 17.17823914 9.13108215 17.18881226 10.3866272 C17.19225018 11.04243397 17.1956881 11.69824074 17.19923019 12.37392044 C17.21100556 14.42592323 17.23045836 16.47771422 17.25234985 18.52963257 C17.31398443 24.36554837 17.3678633 30.20144742 17.40136719 36.03759766 C17.42240038 39.60510122 17.4577815 43.17222683 17.50212479 46.7395134 C17.52306067 48.75282476 17.52832138 50.76627954 17.53329468 52.7796936 C17.64556064 61.16606326 18.20187738 67.36510845 24 73.8125 C24.495 74.37582031 24.99 74.93914062 25.5 75.51953125 C29.9445108 79.90617081 34.6693299 79.59171901 40.51025391 79.64697266 C45.37466823 79.50076025 48.27162148 78.91753348 51.875 75.375 C57.22464374 68.58921028 59.02788585 62.45028138 59.29711914 53.92456055 C59.33708511 52.72369308 59.37705109 51.52282562 59.41822815 50.28556824 C59.47610756 48.35563774 59.47610756 48.35563774 59.53515625 46.38671875 C59.57820334 45.04863834 59.62162003 43.71056978 59.66539001 42.37251282 C59.7792104 38.86277016 59.88802878 35.3528898 59.99578857 31.84295654 C60.10678839 28.25653534 60.22254251 24.67026789 60.33789062 21.08398438 C60.56323393 14.0561313 60.78285079 7.02811173 61 0 C65.95 0 70.9 0 76 0 C76.09074422 8.17186598 76.16396927 16.3433334 76.20724869 24.51556969 C76.22803153 28.3111903 76.25617593 32.10644524 76.30175781 35.90185547 C76.34555183 39.57179937 76.36920687 43.24139388 76.37950897 46.91157913 C76.38684076 48.30449541 76.40115646 49.69739483 76.42292023 51.09016037 C76.55121069 59.64854438 75.87536617 66.32211821 72 74 C71.525625 75.093125 71.05125 76.18625 70.5625 77.3125 C66.44581313 84.39320142 58.75551733 89.8964646 51.32421875 93.18359375 C41.51076207 95.59371413 27.98551375 95.83559952 18.8671875 91.1953125 C8.97802615 84.86459415 3.28469175 75.14957993 0 64 C-0.72735149 58.86149403 -0.70916994 53.80813849 -0.5859375 48.6328125 C-0.57470739 47.21794461 -0.56618532 45.80305293 -0.56021118 44.38815308 C-0.53761094 40.71498941 -0.47895174 37.04331434 -0.4119873 33.37072754 C-0.34992966 29.60282516 -0.32306274 25.83467546 -0.29296875 22.06640625 C-0.22916766 14.71026848 -0.127156 7.355345 0 0 Z " fill="#03090A" transform="translate(825,131)"/>
<path d="M0 0 C52.23702422 0 52.23702422 0 62.50390625 9.2578125 C68.50388658 15.76226345 69.19417436 20.22233039 69.25 28.8125 C69.270625 29.59431641 69.29125 30.37613281 69.3125 31.18164062 C69.36433642 38.9376651 66.92707425 44.90598712 62 51 C59.13483501 53.24182757 56.1486744 55.18110556 53 57 C52.13890625 57.54914063 51.2778125 58.09828125 50.390625 58.6640625 C45.59554902 60.55336663 41.22458826 60.32224522 36.125 60.1875 C35.15046875 60.17396484 34.1759375 60.16042969 33.171875 60.14648438 C30.78100991 60.11132459 28.39043157 60.05752375 26 60 C26 55.38 26 50.76 26 46 C29.279375 45.8453125 29.279375 45.8453125 32.625 45.6875 C38.52270376 45.40930643 43.16385799 44.58688488 47.64453125 40.5 C51.55646799 35.47597421 52.2216942 32.31828483 52 26 C51.64270723 23.27826975 51.26658739 22.25523053 49.2578125 20.33203125 C48.55398438 19.83058594 47.85015625 19.32914063 47.125 18.8125 C46.42632813 18.30332031 45.72765625 17.79414063 45.0078125 17.26953125 C41.51286983 15.05969396 38.49715586 14.83322799 34.45703125 14.68359375 C33.38388672 14.64169922 32.31074219 14.59980469 31.20507812 14.55664062 C30.08552734 14.51732422 28.96597656 14.47800781 27.8125 14.4375 C26.68134766 14.39431641 25.55019531 14.35113281 24.38476562 14.30664062 C21.58996646 14.20050901 18.79507838 14.09845615 16 14 C16.01252808 14.72424164 16.02505615 15.44848328 16.03796387 16.19467163 C16.1572337 23.10562799 16.27498968 30.01660877 16.39115143 36.92761803 C16.45088518 40.47845232 16.51115297 44.02927569 16.57275391 47.58007812 C16.83505877 62.72097478 17.06738063 77.85620238 17 93 C11.39 93 5.78 93 0 93 C0 62.31 0 31.62 0 0 Z " fill="#333845" transform="translate(750,131)"/>
<path d="M0 0 C0 0.66 0 1.32 0 2 C0.86431641 2.14308594 0.86431641 2.14308594 1.74609375 2.2890625 C6.24998886 3.70970186 9.24100216 7.29589865 12 11 C13.44297014 14.60742536 14.25647753 18.19636027 15 22 C15.495 23.485 15.495 23.485 16 25 C16.75705672 33.35674149 15.14838619 40.95633982 13 49 C12.34 49 11.68 49 11 49 C10.7215625 50.051875 10.7215625 50.051875 10.4375 51.125 C7.50877555 56.98244889 1.95296533 60.56083962 -4 63 C-6.80379144 63.43351795 -9.54166217 63.47758702 -12.375 63.4375 C-13.50989868 63.42396484 -13.50989868 63.42396484 -14.66772461 63.41015625 C-23.9966792 63.11966658 -28.93723277 59.74954571 -35.30078125 53.0234375 C-38.64786044 49.03772021 -40 46.19843181 -40 41 C-40.66 41 -41.32 41 -42 41 C-42.97446862 18.89038965 -42.97446862 18.89038965 -37 10 C-36.56558594 9.32839844 -36.13117188 8.65679687 -35.68359375 7.96484375 C-27.29368022 -3.29341629 -12.53782507 -4.77631431 0 0 Z " fill="#00F8F6" transform="translate(359,147)"/>
<path d="M0 0 C1.84464844 0.00773438 1.84464844 0.00773438 3.7265625 0.015625 C12.72021484 0.09521484 12.72021484 0.09521484 13.875 1.25 C13.97373816 3.24799572 14.00471799 5.24957158 14 7.25 C14.00386719 8.8896875 14.00386719 8.8896875 14.0078125 10.5625 C13.875 13.25 13.875 13.25 12.875 14.25 C10.80057501 14.37205834 8.72231058 14.42978724 6.64453125 14.4609375 C5.36642578 14.48929688 4.08832031 14.51765625 2.77148438 14.546875 C0.73527691 14.58796603 -1.30070609 14.62484641 -3.3371582 14.65136719 C-5.30181961 14.67917692 -7.26618015 14.72612899 -9.23046875 14.7734375 C-10.99620239 14.8031665 -10.99620239 14.8031665 -12.79760742 14.83349609 C-16.49435416 15.29623363 -18.95084065 16.32589227 -22.125 18.25 C-23.69712151 21.39424302 -23.6429375 24.82791292 -23.125 28.25 C-20.26111328 34.42054541 -15.13567406 36.62503247 -9.125 39.25 C-6.68295261 39.89506912 -4.65930342 40.13736429 -2.125 40.25 C-2.125 40.91 -2.125 41.57 -2.125 42.25 C-1.24199219 42.50394531 -0.35898437 42.75789063 0.55078125 43.01953125 C3.95021092 44.27783953 6.22818022 45.70080424 9.0625 47.9375 C9.90167969 48.58074219 10.74085938 49.22398437 11.60546875 49.88671875 C16.2174433 54.68920516 17.23015391 59.69777383 17.1875 66.1171875 C17.166875 66.90351563 17.14625 67.68984375 17.125 68.5 C17.11726562 69.70269531 17.11726562 69.70269531 17.109375 70.9296875 C17.06470645 74.2686613 16.93682544 77.06452367 15.875 80.25 C15.215 80.25 14.555 80.25 13.875 80.25 C13.66875 80.806875 13.4625 81.36375 13.25 81.9375 C8.93744572 89.1904322 1.65699964 91.24807323 -6.125 93.25 C-13.04982052 94.64395738 -20.02431541 94.36047923 -27.0625 94.3125 C-28.31869141 94.30798828 -29.57488281 94.30347656 -30.86914062 94.29882812 C-33.95444771 94.28709692 -37.03973012 94.26916317 -40.125 94.25 C-40.125 89.63 -40.125 85.01 -40.125 80.25 C-37.01578125 80.21132812 -37.01578125 80.21132812 -33.84375 80.171875 C-31.81149476 80.13011633 -29.77923994 80.08821607 -27.74707031 80.04248047 C-26.34680039 80.01444929 -24.94637749 79.99314684 -23.54589844 79.97900391 C-15.49454182 79.89286243 -9.11252606 79.57396414 -2.125 75.25 C-1.465 75.25 -0.805 75.25 -0.125 75.25 C0.56320186 68.02221313 0.56320186 68.02221313 -1.875 61.4375 C-8.65188708 56.87613369 -15.98260233 53.67266958 -23.5625 50.6875 C-28.0743421 48.84281456 -31.01568703 47.11308581 -34.125 43.25 C-34.57488281 42.75242188 -35.02476562 42.25484375 -35.48828125 41.7421875 C-40.64424935 35.96169368 -40.415658 31.03417718 -40.33984375 23.51171875 C-39.87242829 16.4155022 -37.17512529 11.18534971 -32.125 6.25 C-29.68847377 4.93427584 -27.71908523 4.07249218 -25.125 3.25 C-23.99239746 2.86606079 -23.99239746 2.86606079 -22.83691406 2.47436523 C-15.14975521 0.11026463 -8.00124691 -0.13854973 0 0 Z " fill="#7155B8" transform="translate(948.125,130.75)"/>
<path d="M0 0 C1.24330078 -0.01160156 1.24330078 -0.01160156 2.51171875 -0.0234375 C3.32253906 -0.02085937 4.13335937 -0.01828125 4.96875 -0.015625 C5.69513672 -0.01336914 6.42152344 -0.01111328 7.16992188 -0.00878906 C9.5 0.25 9.5 0.25 15.5 2.25 C15.5 6.87 15.5 11.49 15.5 16.25 C14.38625 16.085 13.2725 15.92 12.125 15.75 C2.46517032 14.59557396 -8.0134329 14.00473767 -16.08984375 20.25390625 C-24.83343192 29.08252121 -25.94508297 39.04163209 -25.93579102 50.93798828 C-25.76355611 56.68738435 -24.49988729 61.66347897 -22.375 67.02734375 C-21.5 69.25 -21.5 69.25 -21.5 71.25 C-20.6028125 71.435625 -20.6028125 71.435625 -19.6875 71.625 C-17.5 72.25 -17.5 72.25 -14.5 74.25 C-14.5 74.91 -14.5 75.57 -14.5 76.25 C-13.076875 76.7140625 -13.076875 76.7140625 -11.625 77.1875 C-8.5 78.25 -8.5 78.25 -6.5 79.25 C-4.90552536 79.33400529 -3.30759455 79.35727467 -1.7109375 79.34765625 C-0.29941406 79.34282227 -0.29941406 79.34282227 1.140625 79.33789062 C2.12546875 79.32951172 3.1103125 79.32113281 4.125 79.3125 C5.11757813 79.30798828 6.11015625 79.30347656 7.1328125 79.29882812 C9.5886016 79.28702145 12.04427104 79.270554 14.5 79.25 C15.17629966 82.92438398 15.61910296 86.3892047 15.5625 90.125 C15.55347656 90.90617187 15.54445313 91.68734375 15.53515625 92.4921875 C15.52355469 93.07226562 15.51195312 93.65234375 15.5 94.25 C4.11855871 97.14882221 -9.60766484 96.78467928 -20.22265625 91.734375 C-22.65930022 90.14616795 -24.48748961 88.33942162 -26.5 86.25 C-27.28375 85.816875 -28.0675 85.38375 -28.875 84.9375 C-36.88810769 79.78621648 -39.61810765 72.02097672 -42.5 63.25 C-43.05494141 61.56970703 -43.05494141 61.56970703 -43.62109375 59.85546875 C-44.59086 55.87727207 -44.84504377 52.13186617 -44.8125 48.0625 C-44.80686035 47.3192749 -44.8012207 46.5760498 -44.79541016 45.81030273 C-44.46700055 30.73760249 -38.98215461 19.83491338 -28.15625 9.44921875 C-24.26437751 6.22697726 -20.19590328 4.06776901 -15.5 2.25 C-14.60796875 1.88390625 -13.7159375 1.5178125 -12.796875 1.140625 C-8.47237501 -0.02760486 -4.45758758 -0.04159491 0 0 Z " fill="#010B0B" transform="translate(293.5,129.75)"/>
<path d="M0 0 C22 0 22 0 29 6 C29 6.66 29 7.32 29 8 C29.66 8 30.32 8 31 8 C31.28875 8.7425 31.5775 9.485 31.875 10.25 C32.90133512 12.906665 32.90133512 12.906665 34.0625 14.9375 C36.73875679 20.82526493 36.11818609 27.55248708 36.0625 33.875 C36.05798828 34.84953125 36.05347656 35.8240625 36.04882812 36.828125 C36.03710906 39.21881434 36.02070219 41.6093744 36 44 C35.34 44 34.68 44 34 44 C33.95875 44.804375 33.9175 45.60875 33.875 46.4375 C32.68422776 51.28564412 30.34273386 55.28150215 27 59 C24.85546875 59.63671875 24.85546875 59.63671875 23 60 C22.71125 60.66 22.4225 61.32 22.125 62 C21.75375 62.66 21.3825 63.32 21 64 C15 65 15 65 0 65 C0 43.55 0 22.1 0 0 Z " fill="#01FCFA" transform="translate(414,146)"/>
<path d="M0 0 C5.22873505 -0.02309059 10.45728955 -0.04296326 15.68603516 -0.05493164 C17.46078088 -0.05992684 19.23552255 -0.06672528 21.01025391 -0.07543945 C51.9890287 -0.22362155 51.9890287 -0.22362155 62.50390625 9.2578125 C68.50388658 15.76226345 69.19417436 20.22233039 69.25 28.8125 C69.270625 29.59431641 69.29125 30.37613281 69.3125 31.18164062 C69.36433642 38.9376651 66.92707425 44.90598712 62 51 C59.13483501 53.24182757 56.1486744 55.18110556 53 57 C52.13890625 57.54914063 51.2778125 58.09828125 50.390625 58.6640625 C45.59554902 60.55336663 41.22458826 60.32224522 36.125 60.1875 C35.15046875 60.17396484 34.1759375 60.16042969 33.171875 60.14648438 C30.78100991 60.11132459 28.39043157 60.05752375 26 60 C26 55.38 26 50.76 26 46 C29.279375 45.8453125 29.279375 45.8453125 32.625 45.6875 C38.52270376 45.40930643 43.16385799 44.58688488 47.64453125 40.5 C51.55646799 35.47597421 52.2216942 32.31828483 52 26 C51.64270723 23.27826975 51.26658739 22.25523053 49.2578125 20.33203125 C48.55398438 19.83058594 47.85015625 19.32914063 47.125 18.8125 C46.42632813 18.30332031 45.72765625 17.79414063 45.0078125 17.26953125 C41.51286983 15.05969396 38.49715586 14.83322799 34.45703125 14.68359375 C33.38388672 14.64169922 32.31074219 14.59980469 31.20507812 14.55664062 C30.08552734 14.51732422 28.96597656 14.47800781 27.8125 14.4375 C26.68134766 14.39431641 25.55019531 14.35113281 24.38476562 14.30664062 C21.58996646 14.20050901 18.79507838 14.09845615 16 14 C16 13.67 16 13.34 16 13 C22.93 13 29.86 13 37 13 C37 10.36 37 7.72 37 5 C37 4.34 37 3.68 37 3 C25.12 2.67 13.24 2.34 1 2 C1 11.9 1 21.8 1 32 C0.67 32 0.34 32 0 32 C0 21.44 0 10.88 0 0 Z " fill="#4E5C6B" transform="translate(750,131)"/>
<path d="M0 0 C1.45212891 -0.03673828 1.45212891 -0.03673828 2.93359375 -0.07421875 C10.11139191 -0.10351589 14.46351388 1.01726945 19.8671875 5.97265625 C23.77393228 11.02448139 24.75430178 15.04702104 24.125 21.375 C22.11990461 27.94725712 19.05874431 31.03509156 13.24560547 34.49291992 C9.13505871 36.20272944 4.63953444 35.70180748 0.25 35.6875 C-0.73097656 35.70361328 -1.71195313 35.71972656 -2.72265625 35.73632812 C-8.18661629 35.74001501 -12.19348369 35.51324043 -16.875 32.375 C-21.47282312 27.56818492 -23.6622008 24.05626986 -24.1875 17.4375 C-24.02596279 12.06638782 -21.98329185 8.6582853 -18.5 4.625 C-12.81652842 -0.24654707 -7.147883 0.00944238 0 0 Z " fill="#7BFDFC" transform="translate(951.875,292.625)"/>
<path d="M0 0 C1.84464844 0.00773438 1.84464844 0.00773438 3.7265625 0.015625 C12.72021484 0.09521484 12.72021484 0.09521484 13.875 1.25 C13.97373816 3.24799572 14.00471799 5.24957158 14 7.25 C14.00386719 8.8896875 14.00386719 8.8896875 14.0078125 10.5625 C13.875 13.25 13.875 13.25 12.875 14.25 C10.80057501 14.37205834 8.72231058 14.42978724 6.64453125 14.4609375 C5.36642578 14.48929688 4.08832031 14.51765625 2.77148438 14.546875 C0.73527691 14.58796603 -1.30070609 14.62484641 -3.3371582 14.65136719 C-5.30181961 14.67917692 -7.26618015 14.72612899 -9.23046875 14.7734375 C-10.99620239 14.8031665 -10.99620239 14.8031665 -12.79760742 14.83349609 C-16.49435416 15.29623363 -18.95084065 16.32589227 -22.125 18.25 C-23.69758125 21.3951625 -23.49024412 24.81422905 -23.125 28.25 C-22.50753437 29.93551429 -21.8500502 31.60789025 -21.125 33.25 C-27.45833333 33.25 -33.79166667 33.25 -40.125 33.25 C-40.50641333 23.98306867 -40.56924556 16.64258475 -34.875 8.9375 C-31.82111749 5.95302392 -29.11569082 4.51530615 -25.125 3.25 C-23.99239746 2.86606079 -23.99239746 2.86606079 -22.83691406 2.47436523 C-15.14975521 0.11026463 -8.00124691 -0.13854973 0 0 Z " fill="#896FD0" transform="translate(948.125,130.75)"/>
<path d="M0 0 C0.1337124 14.67016077 0.1337124 14.67016077 -3.9375 19.6875 C-14.25973338 29.37904702 -29.923346 29.31091267 -43.1875 29.125 C-44.42564453 29.11597656 -45.66378906 29.10695312 -46.93945312 29.09765625 C-49.95972079 29.07433372 -52.97988733 29.03847277 -56 29 C-56 24.38 -56 19.76 -56 15 C-53.9271875 14.97421875 -51.854375 14.9484375 -49.71875 14.921875 C-47.68649476 14.88011633 -45.65423994 14.83821607 -43.62207031 14.79248047 C-42.22180039 14.76444929 -40.82137749 14.74314684 -39.42089844 14.72900391 C-31.36954182 14.64286243 -24.98752606 14.32396414 -18 10 C-17.34 10 -16.68 10 -16 10 C-15.67 7.69 -15.34 5.38 -15 3 C-9.97887153 0.78479626 -5.48172315 0 0 0 Z " fill="#40317A" transform="translate(964,196)"/>
<path d="M0 0 C4.62 0.99 9.24 1.98 14 3 C14 21.48 14 39.96 14 59 C9.38 59 4.76 59 0 59 C0 39.53 0 20.06 0 0 Z " fill="#000101" transform="translate(751,164)"/>
<path d="M0 0 C5.3503559 0.57021934 10.67787852 1.20734361 16 2 C16.74704278 7.85183508 15.3405484 11.09509005 11.91015625 15.85546875 C8.770417 19.38045208 5.11217315 21.73830477 1 24 C0.14148438 24.54527344 -0.71703125 25.09054688 -1.6015625 25.65234375 C-6.40068996 27.55544602 -10.76730237 27.32245949 -15.875 27.1875 C-16.84953125 27.17396484 -17.8240625 27.16042969 -18.828125 27.14648438 C-21.21899009 27.11132459 -23.60956843 27.05752375 -26 27 C-26 22.38 -26 17.76 -26 13 C-23.81375 12.896875 -21.6275 12.79375 -19.375 12.6875 C-13.47729624 12.40930643 -8.83614201 11.58688488 -4.35546875 7.5 C-2.41284403 5.0051241 -1.00720872 3.02162616 0 0 Z " fill="#071315" transform="translate(802,164)"/>
<path d="M0 0 C5.28 0 10.56 0 16 0 C17 1 17 1 17.12025452 3.17030334 C17.1169236 4.60592873 17.1169236 4.60592873 17.11352539 6.07055664 C17.11344986 7.15160172 17.11337433 8.23264679 17.11329651 9.34645081 C17.10813522 10.5224736 17.10297394 11.6984964 17.09765625 12.91015625 C17.0962413 14.10732773 17.09482635 15.30449921 17.09336853 16.53794861 C17.08774979 20.37949066 17.07519411 24.22097543 17.0625 28.0625 C17.05748741 30.65950437 17.05292409 33.25650965 17.04882812 35.85351562 C17.03777427 42.23569679 17.02101792 48.6178443 17 55 C16.67 55 16.34 55 16 55 C16 48.4 16 41.8 16 35 C11.05 35 6.1 35 1 35 C1 44.57 1 54.14 1 64 C0.67 64 0.34 64 0 64 C0 42.88 0 21.76 0 0 Z " fill="#595962" transform="translate(825,131)"/>
<path d="M0 0 C4.95 0 9.9 0 15 0 C15 11.22 15 22.44 15 34 C10.38 34.33 5.76 34.66 1 35 C0.95101562 36.84207031 0.90203125 38.68414062 0.8515625 40.58203125 C0.7765377 42.99220299 0.70098975 45.40235849 0.625 47.8125 C0.5940625 49.02744141 0.563125 50.24238281 0.53125 51.49414062 C0.49257813 52.65751953 0.45390625 53.82089844 0.4140625 55.01953125 C0.3826416 56.09307861 0.3512207 57.16662598 0.31884766 58.27270508 C0 61 0 61 -2 64 C-1.34 42.88 -0.68 21.76 0 0 Z " fill="#5C6972" transform="translate(886,131)"/>
<path d="M0 0 C0.99 0.33 1.98 0.66 3 1 C3.91967773 3.14208984 3.91967773 3.14208984 4.68359375 5.9609375 C4.97169922 6.99089844 5.25980469 8.02085937 5.55664062 9.08203125 C5.84732422 10.16871094 6.13800781 11.25539062 6.4375 12.375 C7.01578337 14.48800845 7.59780162 16.59999838 8.18359375 18.7109375 C8.61841064 20.27859863 8.61841064 20.27859863 9.06201172 21.87792969 C10.25600634 25.85211063 11.71158788 29.69700953 13.25024414 33.54931641 C14 36 14 36 14 41 C6.08 41 -1.84 41 -10 41 C-9.30365022 36.12555153 -8.55520646 32.04457651 -7.1875 27.40234375 C-6.83429687 26.18869141 -6.48109375 24.97503906 -6.1171875 23.72460938 C-5.74851562 22.47486328 -5.37984375 21.22511719 -5 19.9375 C-4.26772978 17.4475252 -3.53845394 14.95666739 -2.8125 12.46484375 C-2.48894531 11.367771 -2.16539062 10.27069824 -1.83203125 9.14038086 C-1.02729289 6.10301305 -0.46271722 3.10610616 0 0 Z " fill="#03E2E1" transform="translate(606,151)"/>
<path d="M0 0 C1.93166016 0.01740234 1.93166016 0.01740234 3.90234375 0.03515625 C5.19269531 0.04417969 6.48304688 0.05320313 7.8125 0.0625 C8.81152344 0.07410156 9.81054688 0.08570313 10.83984375 0.09765625 C10.91473651 4.20523588 10.96879129 8.31254385 11.00463867 12.4206543 C11.01960313 13.81427953 11.03998226 15.20785869 11.06616211 16.60131836 C11.21336412 24.64547514 11.00859236 31.58747254 7.83984375 39.09765625 C7.50984375 37.77765625 7.17984375 36.45765625 6.83984375 35.09765625 C1.99742742 33.76181726 -2.09453242 32.84437506 -7.16015625 33.09765625 C-6.83797119 32.2363208 -6.51578613 31.37498535 -6.18383789 30.48754883 C-5.16423773 27.11117197 -4.86495303 24.37194155 -4.78125 20.859375 C-4.74708984 19.71017578 -4.71292969 18.56097656 -4.67773438 17.37695312 C-4.65130859 16.19166016 -4.62488281 15.00636719 -4.59765625 13.78515625 C-4.5380273 11.41395388 -4.47445053 9.04284631 -4.40625 6.671875 C-4.38232178 5.62604248 -4.35839355 4.58020996 -4.33374023 3.50268555 C-4.06951823 -0.15814556 -3.76594042 0.1163764 0 0 Z " fill="#343841" transform="translate(890.16015625,164.90234375)"/>
<path d="M0 0 C34 0 34 0 41 2 C41 2.33 41 2.66 41 3 C21.695 2.505 21.695 2.505 2 2 C2 31.7 2 61.4 2 92 C15.2 92 28.4 92 42 92 C30.33809621 99.77460253 14.01586403 94 0 94 C0 62.98 0 31.96 0 0 Z " fill="#054A49" transform="translate(397,131)"/>
<path d="M0 0 C4.95 0 9.9 0 15 0 C15.33 9.24 15.66 18.48 16 28 C14 24 14 24 13 21 C10.45048953 19.53159883 10.45048953 19.53159883 7.4375 18.3125 C5.643125 17.549375 3.84875 16.78625 2 16 C2 21.61 2 27.22 2 33 C0 31 0 31 -0.22705078 27.92724609 C-0.21657715 26.63898926 -0.20610352 25.35073242 -0.1953125 24.0234375 C-0.1924826 23.33819 -0.18965271 22.6529425 -0.18673706 21.94692993 C-0.17553281 19.75610973 -0.15042859 17.56569684 -0.125 15.375 C-0.11497048 13.8906309 -0.10584458 12.4062554 -0.09765625 10.921875 C-0.07729323 7.28096644 -0.03814721 3.64093968 0 0 Z " fill="#2D3339" transform="translate(826,166)"/>
<path d="M0 0 C5.3503559 0.57021934 10.67787852 1.20734361 16 2 C16.67081836 8.43985624 14.75430238 11.83783423 11 17 C10.67 16.01 10.34 15.02 10 14 C1.585 12.515 1.585 12.515 -7 11 C-5.47005208 9.01432292 -3.94010417 7.02864583 -2.41015625 5.04296875 C-0.83143752 2.95874948 -0.83143752 2.95874948 0 0 Z " fill="#1B2126" transform="translate(802,164)"/>
<path d="M0 0 C5.28 0 10.56 0 16 0 C17 1 17 1 17.12025452 3.17030334 C17.1169236 4.60592873 17.1169236 4.60592873 17.11352539 6.07055664 C17.11344986 7.15160172 17.11337433 8.23264679 17.11329651 9.34645081 C17.10813522 10.5224736 17.10297394 11.6984964 17.09765625 12.91015625 C17.0962413 14.10732773 17.09482635 15.30449921 17.09336853 16.53794861 C17.08774979 20.37949066 17.07519411 24.22097543 17.0625 28.0625 C17.05748741 30.65950437 17.05292409 33.25650965 17.04882812 35.85351562 C17.03777427 42.23569679 17.02101792 48.6178443 17 55 C16.67 55 16.34 55 16 55 C14.79805413 37.33568845 14.89645964 19.6942504 15 2 C10.71 2 6.42 2 2 2 C2.01160156 3.794375 2.02320313 5.58875 2.03515625 7.4375 C2.11688228 26.31366006 1.7034726 45.13720537 1 64 C0.67 64 0.34 64 0 64 C0 42.88 0 21.76 0 0 Z " fill="#388A94" transform="translate(825,131)"/>
<path d="M0 0 C4.455 0.99 4.455 0.99 9 2 C9 2.66 9 3.32 9 4 C9.85658203 3.93039063 9.85658203 3.93039063 10.73046875 3.859375 C18.39466548 3.51820249 24.81295866 5.47665006 32 8 C32 8.66 32 9.32 32 10 C25.14016191 11.05728087 18.43216776 11.11639843 11.5 11.0625 C10.39140625 11.05798828 9.2828125 11.05347656 8.140625 11.04882812 C5.42705973 11.03713172 2.71352256 11.01919945 0 11 C0 7.37 0 3.74 0 0 Z " fill="#0A050B" transform="translate(909,213)"/>
<path d="M0 0 C1.32 0.66 2.64 1.32 4 2 C4 12.89 4 23.78 4 35 C0 34 0 34 -2 32 C-2.25878906 29.80444336 -2.25878906 29.80444336 -2.265625 27.08984375 C-2.26949219 25.60387695 -2.26949219 25.60387695 -2.2734375 24.08789062 C-2.26570313 23.04826172 -2.25796875 22.00863281 -2.25 20.9375 C-2.25773437 19.92494141 -2.26546875 18.91238281 -2.2734375 17.86914062 C-2.25728361 11.60546788 -1.58912352 6.06010995 0 0 Z " fill="#9B89F3" transform="translate(111,225)"/>
<path d="M0 0 C0.33 0 0.66 0 1 0 C1 22.11 1 44.22 1 67 C6.61 67 12.22 67 18 67 C18 56.11 18 45.22 18 34 C18.33 34 18.66 34 19 34 C20.05430285 45.37140932 20.07819241 56.58390827 20 68 C13.4 68 6.8 68 0 68 C-0.33 48.2 -0.66 28.4 -1 8 C-1.66 8.66 -2.32 9.32 -3 10 C-2.25 2.25 -2.25 2.25 0 0 Z " fill="#04B5B7" transform="translate(722,157)"/>
<path d="M0 0 C7.26 0 14.52 0 22 0 C22 0.33 22 0.66 22 1 C15.07 1 8.14 1 1 1 C1 21.46 1 41.92 1 63 C8.26 62.34 15.52 61.68 23 61 C22.34 61.99 21.68 62.98 21 64 C15 65 15 65 0 65 C0 43.55 0 22.1 0 0 Z " fill="#03B1AD" transform="translate(414,146)"/>
<path d="M0 0 C2 2 2 2 2.1953125 4.6015625 C2.17210937 5.59929687 2.14890625 6.59703125 2.125 7.625 C2.10695313 8.62789063 2.08890625 9.63078125 2.0703125 10.6640625 C2.03550781 11.82035156 2.03550781 11.82035156 2 13 C0.37536158 13.05395478 -1.24978541 13.09277195 -2.875 13.125 C-3.77992188 13.14820313 -4.68484375 13.17140625 -5.6171875 13.1953125 C-8 13 -8 13 -10 11 C-9.44444444 6.44444444 -9.44444444 6.44444444 -8 5 C-5.66702567 4.95907063 -3.33294775 4.95758277 -1 5 C-1 4.34 -1 3.68 -1 3 C-3.64 3 -6.28 3 -9 3 C-9 2.34 -9 1.68 -9 1 C-5.98675805 -0.50662097 -3.31713623 -0.17770373 0 0 Z " fill="#13FCFA" transform="translate(952,306)"/>
<path d="M0 0 C1.20398438 -0.00128906 2.40796875 -0.00257813 3.6484375 -0.00390625 C5.535625 0.00189453 5.535625 0.00189453 7.4609375 0.0078125 C9.35972656 0.00201172 9.35972656 0.00201172 11.296875 -0.00390625 C12.49828125 -0.00261719 13.6996875 -0.00132812 14.9375 0 C16.04432129 0.00112793 17.15114258 0.00225586 18.29150391 0.00341797 C20.8359375 0.1328125 20.8359375 0.1328125 21.8359375 1.1328125 C21.93467566 3.13080822 21.96565549 5.13238408 21.9609375 7.1328125 C21.96480469 8.7725 21.96480469 8.7725 21.96875 10.4453125 C21.8359375 13.1328125 21.8359375 13.1328125 20.8359375 14.1328125 C18.98224139 14.22018895 17.12526209 14.23979403 15.26953125 14.23046875 C14.14482422 14.22724609 13.02011719 14.22402344 11.86132812 14.22070312 C10.67732422 14.21232422 9.49332031 14.20394531 8.2734375 14.1953125 C7.08556641 14.19080078 5.89769531 14.18628906 4.67382812 14.18164062 C1.72781524 14.16980925 -1.21809931 14.15332537 -4.1640625 14.1328125 C-4.1640625 13.8028125 -4.1640625 13.4728125 -4.1640625 13.1328125 C3.7559375 13.1328125 11.6759375 13.1328125 19.8359375 13.1328125 C19.8359375 9.5028125 19.8359375 5.8728125 19.8359375 2.1328125 C3.9959375 2.6278125 3.9959375 2.6278125 -12.1640625 3.1328125 C-7.90097705 0.29075553 -5.02031763 0.00510566 0 0 Z " fill="#6798E1" transform="translate(940.1640625,130.8671875)"/>
<path d="M0 0 C0.33 0 0.66 0 1 0 C1.023435 8.01641633 1.04107059 16.03281774 1.05181217 24.04926014 C1.05697421 27.77381942 1.06394618 31.49835484 1.07543945 35.22290039 C1.12340823 51.17199706 1.1530735 67.08186577 0 83 C-1.485 83.495 -1.485 83.495 -3 84 C-3.33 82.68 -3.66 81.36 -4 80 C-3.01 80.33 -2.02 80.66 -1 81 C-1.00580078 79.84733643 -1.01160156 78.69467285 -1.01757812 77.50708008 C-1.06955721 61.9160546 -0.81438607 46.33230612 -0.53643799 30.74432373 C-0.47477852 27.263817 -0.41522684 23.78327418 -0.35546875 20.30273438 C-0.23897806 13.53512067 -0.12025267 6.76754788 0 0 Z " fill="#03A5A3" transform="translate(648,131)"/>
<path d="M0 0 C5.94 0.33 11.88 0.66 18 1 C17.67 1.99 17.34 2.98 17 4 C24.92548442 5.94661021 32.91356821 6.99851833 41 8 C40.67 8.66 40.34 9.32 40 10 C37.35139573 10.59355614 34.70802678 10.74209269 32 11 C32 10.34 32 9.68 32 9 C24.37282967 7.38159365 16.71271047 6.13635546 9 5 C9 4.34 9 3.68 9 3 C4.545 2.01 4.545 2.01 0 1 C0 0.67 0 0.34 0 0 Z " fill="#321D56" transform="translate(909,212)"/>
<path d="M0 0 C2 2 2 2 2.1953125 4.6015625 C2.17210937 5.59929687 2.14890625 6.59703125 2.125 7.625 C2.10695313 8.62789063 2.08890625 9.63078125 2.0703125 10.6640625 C2.03550781 11.82035156 2.03550781 11.82035156 2 13 C1.01 13 0.02 13 -1 13 C-2.125 6.375 -2.125 6.375 -1 3 C-3.64 3 -6.28 3 -9 3 C-9 2.34 -9 1.68 -9 1 C-5.98675805 -0.50662097 -3.31713623 -0.17770373 0 0 Z " fill="#0CFDFA" transform="translate(952,306)"/>
<path d="M0 0 C0.99 0.33 1.98 0.66 3 1 C2.01 2.485 2.01 2.485 1 4 C-1.11221185 13.24590846 -0.0871041 23.57340043 0 33 C-0.66 32.67 -1.32 32.34 -2 32 C-2.05878077 28.35423608 -2.0938558 24.70859648 -2.125 21.0625 C-2.14175781 20.04091797 -2.15851563 19.01933594 -2.17578125 17.96679688 C-2.21618815 11.64311648 -1.62010013 6.11683473 0 0 Z " fill="#8C8DF5" transform="translate(111,225)"/>
<path d="M0 0 C5.94 0.33 11.88 0.66 18 1 C17.67 2.32 17.34 3.64 17 5 C14.36 5 11.72 5 9 5 C9 4.34 9 3.68 9 3 C4.545 2.01 4.545 2.01 0 1 C0 0.67 0 0.34 0 0 Z " fill="#231134" transform="translate(909,212)"/>
<path d="M0 0 C3.94622865 1.32686782 6.2669423 2.92813336 9.125 5.9375 C10.11886719 6.97197266 10.11886719 6.97197266 11.1328125 8.02734375 C11.74898437 8.67832031 12.36515625 9.32929687 13 10 C13.99664245 11.00334632 14.99533082 12.00469109 16 13 C13.72265625 13.234375 13.72265625 13.234375 11 13 C9.12109375 11.390625 9.12109375 11.390625 7.4375 9.25 C6.84710938 8.52167969 6.25671875 7.79335937 5.6484375 7.04296875 C5.10445312 6.36878906 4.56046875 5.69460937 4 5 C3.195625 4.195625 2.39125 3.39125 1.5625 2.5625 C1.046875 2.046875 0.53125 1.53125 0 1 C0 0.67 0 0.34 0 0 Z " fill="#829CEA" transform="translate(169,112)"/>
<path d="M0 0 C0.66 0.33 1.32 0.66 2 1 C0.92173635 2.27513763 -0.16285519 3.54492569 -1.25 4.8125 C-1.85328125 5.52019531 -2.4565625 6.22789062 -3.078125 6.95703125 C-5 9 -5 9 -7.109375 10.57421875 C-9.2608673 12.0334434 -9.2608673 12.0334434 -11 15 C-10.67666114 9.66490885 -7.59438544 6.63023966 -4 3 C-1.625 1.0625 -1.625 1.0625 0 0 Z " fill="#03BEBD" transform="translate(546,147)"/>
<path d="M0 0 C0.99 0 1.98 0 3 0 C3 4.29 3 8.58 3 13 C2.01 13 1.02 13 0 13 C0 8.71 0 4.42 0 0 Z " fill="#0FFDFA" transform="translate(957,306)"/>
<path d="M0 0 C3.89271432 2.167295 7.03709814 4.67413029 10.3125 7.6875 C11.19550781 8.49574219 12.07851562 9.30398437 12.98828125 10.13671875 C13.65214844 10.75160156 14.31601563 11.36648437 15 12 C14.34 12.66 13.68 13.32 13 14 C12.56429687 13.55269531 12.12859375 13.10539062 11.6796875 12.64453125 C8.74649716 9.66689863 5.83335543 6.79481674 2.5625 4.1875 C1.716875 3.465625 0.87125 2.74375 0 2 C0 1.34 0 0.68 0 0 Z " fill="#47D1F4" transform="translate(155,99)"/>
<path d="M0 0 C0.33 0 0.66 0 1 0 C1 4.95 1 9.9 1 15 C0.01 15.33 -0.98 15.66 -2 16 C-2.2358396 10.22192976 -1.86783046 5.48675196 0 0 Z " fill="#0EFDFD" transform="translate(823,149)"/>
<path d="M0 0 C0.66 0.33 1.32 0.66 2 1 C0.56974806 2.65213589 -0.86945545 4.29652589 -2.3125 5.9375 C-3.11300781 6.85402344 -3.91351562 7.77054688 -4.73828125 8.71484375 C-7 11 -7 11 -10 12 C-8.52278578 8.54798361 -6.56205999 6.35038064 -3.875 3.75 C-3.15054688 3.04359375 -2.42609375 2.3371875 -1.6796875 1.609375 C-1.12539063 1.07828125 -0.57109375 0.5471875 0 0 Z " fill="#053332" transform="translate(533,137)"/>
<path d="M0 0 C0.66 0.33 1.32 0.66 2 1 C0.56974806 2.65213589 -0.86945545 4.29652589 -2.3125 5.9375 C-3.11300781 6.85402344 -3.91351563 7.77054688 -4.73828125 8.71484375 C-7 11 -7 11 -10 12 C-8.52278578 8.54798361 -6.56205999 6.35038064 -3.875 3.75 C-3.15054687 3.04359375 -2.42609375 2.3371875 -1.6796875 1.609375 C-1.12539063 1.07828125 -0.57109375 0.5471875 0 0 Z " fill="#073E3E" transform="translate(268,137)"/>
<path d="M0 0 C0.66 0 1.32 0 2 0 C0.50923566 3.2826932 -1.38620321 5.93077441 -3.625 8.75 C-4.57246094 9.94882813 -4.57246094 9.94882813 -5.5390625 11.171875 C-6.02117187 11.77515625 -6.50328125 12.3784375 -7 13 C-7.33 12.34 -7.66 11.68 -8 11 C-5.5092742 7.17495681 -3.02696221 3.43055717 0 0 Z " fill="#7AAAEE" transform="translate(99,101)"/>
<path d="M0 0 C0.66 0.33 1.32 0.66 2 1 C0.88200014 2.33920838 -0.24461897 3.67122556 -1.375 5 C-2.00148438 5.7425 -2.62796875 6.485 -3.2734375 7.25 C-4.12808594 8.11625 -4.12808594 8.11625 -5 9 C-5.66 9 -6.32 9 -7 9 C-5.44499019 5.18315774 -2.96404505 2.80804268 0 0 Z " fill="#03C6C4" transform="translate(280,147)"/>
<path d="M0 0 C0.66 0.33 1.32 0.66 2 1 C-2 7.57142857 -2 7.57142857 -6 9 C-4.68775452 5.06326356 -3.08089673 2.77280706 0 0 Z " fill="#6991D7" transform="translate(916,137)"/>
<path d="M0 0 C1.5 1.375 1.5 1.375 3 3 C3 3.66 3 4.32 3 5 C3.66 5 4.32 5 5 5 C4.67 7.31 4.34 9.62 4 12 C3.67 12 3.34 12 3 12 C3 10.02 3 8.04 3 6 C2.01 6 1.02 6 0 6 C0 4.02 0 2.04 0 0 Z " fill="#078181" transform="translate(305,203)"/>
<path d="M0 0 C1.09658936 3.28976808 0.79953138 4.71303767 0 8 C-0.99 8 -1.98 8 -3 8 C-2.25 2.25 -2.25 2.25 0 0 Z " fill="#07C0C1" transform="translate(696,189)"/>
<path d="M0 0 C-2.99879215 1.99919476 -5.59093411 2.91200025 -9 4 C-9.99 4.495 -9.99 4.495 -11 5 C-10.67 3.68 -10.34 2.36 -10 1 C-6.61981469 -0.04005702 -3.5219721 -0.08004482 0 0 Z " fill="#593493" transform="translate(960,197)"/>
<path d="M0 0 C1.65 0 3.3 0 5 0 C5 0.99 5 1.98 5 3 C3.35 3.33 1.7 3.66 0 4 C0 2.68 0 1.36 0 0 Z " fill="#61FDFB" transform="translate(946,313)"/>
<path d="M0 0 C0.33 0 0.66 0 1 0 C1.1875 2.875 1.1875 2.875 1 6 C0.01 6.66 -0.98 7.32 -2 8 C-1.125 1.125 -1.125 1.125 0 0 Z " fill="#0FF8FB" transform="translate(721,164)"/>
<path d="M0 0 C2.88437779 1.29299694 4.87219421 2.65941363 7 5 C4.625 5.125 4.625 5.125 2 5 C1.34 4.34 0.68 3.68 0 3 C0 2.01 0 1.02 0 0 Z " fill="#8F90E6" transform="translate(178,120)"/>
</svg>
